<svg xmlns="http://www.w3.org/2000/svg" viewBox="0 0 720 400"><defs><linearGradient id="b" x2="1" y2="1"><stop stop-color="#0c1720"/><stop offset=".5" stop-color="#172126"/><stop offset="1" stop-color="#152a26"/></linearGradient><linearGradient id="n"><stop stop-color="#41c9b3"/><stop offset="1" stop-color="#e6ba52"/></linearGradient><filter id="g"><feGaussianBlur stdDeviation="20"/></filter></defs><rect width="720" height="400" fill="url(#b)"/><circle cx="110" cy="80" r="90" fill="#39c6af" opacity=".15" filter="url(#g)"/><circle cx="620" cy="300" r="100" fill="#e3b348" opacity=".13" filter="url(#g)"/><path d="M55 58h610v260H55z" fill="#080d12" stroke="#2f4145" stroke-width="6"/><g fill="#162329" stroke="#3b5557" stroke-width="3"><rect x="80" y="82" width="125" height="92" rx="10"/><rect x="222" y="82" width="125" height="92" rx="10"/><rect x="364" y="82" width="125" height="92" rx="10"/><rect x="506" y="82" width="125" height="92" rx="10"/><rect x="80" y="194" width="125" height="92" rx="10"/><rect x="222" y="194" width="125" height="92" rx="10"/><rect x="364" y="194" width="125" height="92" rx="10"/><rect x="506" y="194" width="125" height="92" rx="10"/></g><g fill="none" stroke="url(#n)" stroke-width="5"><path d="M100 145l18-30h54l20 30v14H100z"/><path d="M243 145l18-30h54l20 30v14h-92z"/><path d="M385 145l18-30h54l20 30v14h-92z"/><path d="M527 145l18-30h54l20 30v14h-92z"/><path d="M100 257l18-30h54l20 30v14H100z"/><path d="M243 257l18-30h54l20 30v14h-92z"/><path d="M385 257l18-30h54l20 30v14h-92z"/><path d="M527 257l18-30h54l20 30v14h-92z"/></g><path d="M40 330h640" stroke="#e5b64c" stroke-width="4"/><text x="70" y="374" fill="#dffcf7" font-family="Arial" font-size="27" font-weight="800">DIECAST KOLEKSİYON DUVARI</text></svg>
