<svg xmlns="http://www.w3.org/2000/svg" viewBox="0 0 720 400"><defs><radialGradient id="b"><stop stop-color="#49265e"/><stop offset=".48" stop-color="#141421"/><stop offset="1" stop-color="#080b11"/></radialGradient><linearGradient id="g" x2="1" y2="1"><stop stop-color="#f3cb5d"/><stop offset=".5" stop-color="#bf6ce9"/><stop offset="1" stop-color="#45ccb5"/></linearGradient><filter id="s"><feGaussianBlur stdDeviation="18"/></filter></defs><rect width="720" height="400" fill="url(#b)"/><circle cx="560" cy="90" r="100" fill="#b65ddd" opacity=".2" filter="url(#s)"/><g transform="translate(75 52)"><circle cx="145" cy="145" r="122" fill="none" stroke="#be6be7" stroke-width="6"/><circle cx="145" cy="145" r="86" fill="none" stroke="#e8bd50" stroke-width="4"/><circle cx="145" cy="145" r="48" fill="#0c1118" stroke="#45ccb5" stroke-width="4"/><path d="M145 10v58M145 222v58M10 145h58M222 145h58" stroke="#e9bc4e" stroke-width="5"/><path d="M145 145V38M145 145l88-54" stroke="#ef6b3c" stroke-width="6" stroke-linecap="round"/><text x="145" y="156" text-anchor="middle" fill="#fff0ae" font-family="Arial" font-size="42" font-weight="900">TH</text></g><g transform="translate(390 150)"><path d="M0 74l43-63h152l62 63v54H0z" fill="#151923" stroke="url(#g)" stroke-width="7"/><path d="M62 11l31-39h73l42 39" fill="#191f2b" stroke="#f2c85b" stroke-width="6"/><circle cx="65" cy="120" r="26" fill="#07090e" stroke="#bc6ce7" stroke-width="8"/><circle cx="205" cy="120" r="26" fill="#07090e" stroke="#42cbb4" stroke-width="8"/></g><text x="410" y="105" fill="#ffe491" font-family="Arial" font-size="30" font-weight="900">PREMIUM ALERT</text><text x="410" y="137" fill="#c995e7" font-family="Arial" font-size="20" font-weight="700">ERKEN RAF RAPORU</text></svg>
