<svg xmlns="http://www.w3.org/2000/svg" viewBox="0 0 720 400"><defs><linearGradient id="b" x2="1" y2="1"><stop stop-color="#111b25"/><stop offset=".55" stop-color="#0b1017"/><stop offset="1" stop-color="#28150e"/></linearGradient><linearGradient id="s" x1="0" y1="0" x2="0" y2="1"><stop stop-color="#e9b84b"/><stop offset="1" stop-color="#b56c2d"/></linearGradient><filter id="g"><feGaussianBlur stdDeviation="22"/></filter></defs><rect width="720" height="400" fill="url(#b)"/><circle cx="600" cy="70" r="90" fill="#e66231" opacity=".2" filter="url(#g)"/><path d="M0 310L720 190V400H0z" fill="#0a0e13"/><g stroke="#2a323b" stroke-width="8"><path d="M48 84h470v220H48z"/><path d="M48 150h470M48 220h470M118 84v220M260 84v220M402 84v220"/></g><g fill="url(#s)"><rect x="68" y="102" width="42" height="40" rx="4"/><rect x="130" y="98" width="50" height="45" rx="4"/><rect x="278" y="96" width="55" height="47" rx="4"/><rect x="421" y="101" width="70" height="42" rx="4"/></g><g fill="#d24b32"><rect x="70" y="164" width="74" height="46" rx="5"/><rect x="164" y="172" width="66" height="38" rx="5"/><rect x="283" y="162" width="47" height="48" rx="5"/><rect x="353" y="168" width="81" height="42" rx="5"/></g><g transform="translate(425 240)"><path d="M0 51l35-54h126l51 54v46H0z" fill="#d78e35" stroke="#ffd878" stroke-width="5"/><path d="M53 0l28-32h58l33 32" fill="#18212a" stroke="#ffd878" stroke-width="5"/><circle cx="54" cy="91" r="22" fill="#080b0f" stroke="#f0b94c" stroke-width="7"/><circle cx="167" cy="91" r="22" fill="#080b0f" stroke="#f0b94c" stroke-width="7"/></g><circle cx="570" cy="125" r="72" fill="none" stroke="#44cbb4" stroke-width="4" opacity=".65"/><circle cx="570" cy="125" r="43" fill="none" stroke="#e9b84b" stroke-width="3" opacity=".7"/><path d="M570 125V48M570 125l62-37" stroke="#f26c38" stroke-width="5" stroke-linecap="round"/><text x="70" y="360" fill="#fff0b2" font-family="Arial" font-size="28" font-weight="800">YENİ SEVKİYAT RADARI</text></svg>
