<svg width="43" height="33" viewBox="0 0 43 33" fill="none" xmlns="http://www.w3.org/2000/svg">
<g clip-path="url(#clip0_10009_149)">
<path fill-rule="evenodd" clip-rule="evenodd" d="M0.196991 21.504H13.9092V0.19635H0.196991V21.504Z" fill="#084793"/>
<path fill-rule="evenodd" clip-rule="evenodd" d="M2.00482 10.0203H7.67862C9.34863 10.0203 10.6261 10.5765 11.5108 11.6889C12.2962 12.6664 12.6887 13.9134 12.6887 15.4304C12.6887 17.2842 12.108 18.7728 10.9466 19.8963C9.82972 20.9637 8.39749 21.4974 6.65029 21.4974H2.00446L2.00482 10.0203ZM4.49331 10.9977V20.5204H5.90349C8.59117 20.5204 9.93483 18.8182 9.93483 15.4138C9.93483 12.4701 8.66321 10.9985 6.11922 10.9985H4.49331V10.9977Z" fill="#FEFEFE"/>
<path fill-rule="evenodd" clip-rule="evenodd" d="M29.226 21.504H42.9383V0.19635H29.226V21.504Z" fill="#084793"/>
<path fill-rule="evenodd" clip-rule="evenodd" d="M32.1526 21.7375V9.64337H35.7815C37.1899 9.64337 38.1098 9.7614 38.5416 9.99598C39.5295 10.5367 40.0238 11.3773 40.0238 12.5173C40.0238 13.3638 39.7849 14.0628 39.3083 14.6153C38.8312 15.1556 38.1836 15.5145 37.3659 15.6904C37.7408 16.3606 38.2347 17.1894 38.8481 18.1764C39.8478 19.7749 40.3586 20.5974 40.3818 20.6447L41.0459 21.7371C40.1944 21.6789 39.6773 21.6494 39.4957 21.6494C39.3252 21.6494 38.8139 21.6789 37.962 21.7371L35.9348 18.0355C35.6963 17.6003 35.3273 16.9482 34.8274 16.0785H34.708V21.7371C34.0038 21.6789 33.5779 21.6494 33.4305 21.6494C33.2945 21.6494 32.8682 21.6792 32.1526 21.7375ZM34.708 10.5953V15.3201C34.8557 15.3323 34.998 15.3382 35.1343 15.3382C36.6334 15.3382 37.3828 14.4917 37.3828 12.7991C37.3828 12.5173 37.3545 12.2238 37.2979 11.9176C37.184 11.2832 36.8495 10.8775 36.2927 10.7016C36.0428 10.6307 35.5147 10.5953 34.708 10.5953Z" fill="#FEFEFE"/>
<path fill-rule="evenodd" clip-rule="evenodd" d="M0.196991 32.8066H42.9375V31.8255H0.196991V32.8066ZM2.54472 27.4216L2.16727 28.1582C1.97359 27.9966 1.7641 27.9159 1.53808 27.9159C1.43848 27.9159 1.34954 27.9417 1.27236 27.9933C1.17864 28.0516 1.13197 28.1276 1.13197 28.2213C1.13197 28.3695 1.27236 28.4861 1.55278 28.5702L1.79461 28.6428C2.07833 28.7299 2.2915 28.8413 2.43299 28.977C2.6072 29.1452 2.6943 29.3665 2.6943 29.6409C2.6943 30.0835 2.56861 30.4114 2.31722 30.6246C2.04599 30.8536 1.70089 30.9683 1.28191 30.9683C0.823983 30.9683 0.396556 30.8297 0 30.5516L0.406479 29.7862C0.693145 30.0381 0.973932 30.1643 1.2481 30.1643C1.37049 30.1643 1.47707 30.1337 1.56711 30.0721C1.61224 30.0421 1.64888 30.0009 1.67348 29.9525C1.69808 29.9041 1.7098 29.8501 1.7075 29.7958C1.7075 29.6796 1.63657 29.5845 1.49471 29.5103C1.42709 29.4712 1.30617 29.4277 1.13197 29.379C0.780248 29.2791 0.541726 29.174 0.416034 29.0644C0.235581 28.9091 0.145171 28.6701 0.145171 28.347C0.145171 27.9789 0.262778 27.6831 0.497991 27.4603C0.733573 27.2343 1.03531 27.1214 1.40283 27.1214C1.80315 27.1189 2.19704 27.2225 2.54472 27.4216ZM11.4733 28.0225V30.8717H10.5251V28.0225H9.74152V27.2184H12.2572V28.0225H11.4733ZM21.3118 27.097C21.8536 27.097 22.321 27.2715 22.7147 27.6204C23.1241 27.9856 23.3292 28.4378 23.3292 28.977C23.3292 29.5682 23.1388 30.0529 22.758 30.4306C22.3809 30.8053 21.8988 30.9927 21.3118 30.9927C20.7249 30.9927 20.2412 30.8053 19.8605 30.4306C19.4834 30.0529 19.2945 29.5682 19.2945 28.9774C19.2945 28.4378 19.4996 27.9852 19.909 27.6201C20.3022 27.2715 20.7701 27.097 21.3118 27.097ZM21.3118 28.0177C21.0314 28.0177 20.7896 28.1147 20.5863 28.3083C20.3831 28.5023 20.2813 28.7269 20.2813 28.9818C20.2813 29.292 20.3816 29.552 20.5816 29.7619C20.7811 29.9684 21.0248 30.0721 21.3118 30.0721C21.5985 30.0721 21.8425 29.9688 22.0425 29.7623C22.2424 29.552 22.3424 29.292 22.3424 28.9818C22.3424 28.7269 22.2406 28.5023 22.0373 28.3083C21.9415 28.2142 21.828 28.1401 21.7035 28.0903C21.579 28.0404 21.4459 28.0157 21.3118 28.0177ZM32.5337 29.3742L33.6804 30.8717H32.4999L31.605 29.4664H31.5954V30.8717H30.6472V27.218H32.0644C32.4448 27.218 32.7465 27.3088 32.9689 27.4895C33.2111 27.6835 33.332 27.9679 33.332 28.3422C33.332 28.6041 33.264 28.8269 33.1287 29.0109C32.9836 29.2079 32.7858 29.3292 32.5337 29.3742ZM31.5954 27.945V28.856H31.6873C32.1258 28.856 32.3452 28.7041 32.3452 28.4005C32.3452 28.097 32.1258 27.945 31.6873 27.945H31.5954ZM42.8897 28.0225H41.7626V28.6281H42.8317V29.4321H41.7626V30.0673H42.8897V30.8713H40.8147V27.2184H42.8897V28.0225Z" fill="#084793"/>
<path fill-rule="evenodd" clip-rule="evenodd" d="M14.7115 26.3579H28.4237V0.19635H14.7115V26.3579Z" fill="#E20714"/>
<path fill-rule="evenodd" clip-rule="evenodd" d="M21.6481 18.4235L21.8355 18.6706L24.3056 21.7733C24.9874 20.9625 25.6629 19.8457 26.3333 18.4235L27.2704 19.4286C26.4527 20.6273 25.6629 21.6442 24.9021 22.4788C25.402 23.066 26.18 23.9597 27.2359 25.1584V25.3871C26.3274 25.3285 25.7879 25.2993 25.6177 25.2993C25.4472 25.2993 24.9076 25.3285 23.9991 25.3871L23.1303 24.1356C22.6533 24.5591 22.091 24.9117 21.4434 25.1935C20.762 25.4753 20.1203 25.6165 19.5183 25.6165C18.5528 25.6165 17.741 25.3399 17.082 24.7881C16.4348 24.2356 16.1107 23.5131 16.1107 22.6194C16.1107 21.1507 17.1221 19.9401 19.1434 18.9878C18.7006 18.318 18.4169 17.8536 18.2915 17.5951C18.0306 17.0662 17.9001 16.5313 17.9001 15.9906C17.9001 15.1917 18.2294 14.5275 18.888 13.9989C19.49 13.5287 20.1942 13.2933 21.0005 13.2933C21.7389 13.2933 22.3637 13.4519 22.8749 13.7695C23.4997 14.1575 23.8121 14.71 23.8121 15.4267C23.8121 16.4727 23.0906 17.4719 21.6481 18.4235ZM21.1538 17.7891C21.4948 17.5187 21.7958 17.1779 22.0572 16.7667C22.3409 16.3082 22.4827 15.8851 22.4827 15.4971C22.4827 15.1331 22.3751 14.8155 22.1593 14.5455C21.9432 14.2752 21.665 14.1398 21.3243 14.1398C20.5066 14.1398 20.0975 14.5688 20.0975 15.4267C20.0975 15.9088 20.4496 16.6962 21.1538 17.7891ZM19.6378 19.6757C18.7741 20.275 18.343 20.9799 18.343 21.791C18.343 22.3199 18.5245 22.8255 18.888 23.3069C19.1493 23.648 19.5183 23.9184 19.9957 24.1183C20.1883 24.2002 20.4952 24.2415 20.9156 24.2415C21.6312 24.2415 22.2104 24.0007 22.6533 23.5186C21.612 22.2664 20.6065 20.9852 19.6378 19.6757Z" fill="#FEFEFE"/>
<path fill-rule="evenodd" clip-rule="evenodd" d="M0.196991 26.3579H13.9092V21.504H0.196991V26.3579Z" fill="#FFD400"/>
<path fill-rule="evenodd" clip-rule="evenodd" d="M2.65276 22.6297H3.41536V25.4543H2.92105V23.5437C2.92105 23.4891 2.92178 23.4124 2.92289 23.3139C2.92399 23.2143 2.92472 23.1376 2.92472 23.0841L2.44437 25.4543H1.92984L1.45243 23.0841C1.45243 23.1376 1.45317 23.2143 1.45427 23.3139L1.45611 23.5437V25.4543H0.961792V22.6301H1.73359L2.19483 24.8512L2.65276 22.6297ZM4.24119 22.6297H4.77997V24.3658C4.77997 24.5602 4.80055 24.7019 4.84208 24.7915C4.9064 24.9501 5.04642 25.029 5.26216 25.029C5.47679 25.029 5.61608 24.9497 5.6804 24.7915C5.72193 24.7019 5.74288 24.5602 5.74288 24.3658V22.6301H6.2813V24.3662C6.2813 24.6665 6.2394 24.9003 6.1556 25.0677C5.99977 25.3742 5.70172 25.5277 5.26216 25.5277C4.82224 25.5277 4.52418 25.3742 4.36688 25.0677C4.28308 24.9003 4.24119 24.6665 4.24119 24.3662V22.6297ZM7.50477 24.5824C7.52095 24.7114 7.55255 24.8081 7.5996 24.8719C7.6856 24.9881 7.83334 25.0464 8.04209 25.0464C8.16705 25.0464 8.26885 25.0309 8.34677 25.0002C8.49488 24.9412 8.56912 24.8324 8.56912 24.6727C8.56912 24.5794 8.53236 24.5071 8.45886 24.4562C8.38536 24.4061 8.26995 24.3622 8.11265 24.3238L7.84436 24.2567C7.57975 24.1903 7.39746 24.1184 7.29676 24.0402C7.12549 23.91 7.03986 23.7064 7.03986 23.429C7.03986 23.176 7.12255 22.9657 7.28794 22.7983C7.45332 22.6308 7.69589 22.5475 8.01636 22.5475C8.28355 22.5475 8.51142 22.6264 8.69995 22.785C8.88923 22.9421 8.98846 23.1708 8.99765 23.4711H8.48789C8.47871 23.3014 8.41219 23.1804 8.28833 23.1089C8.20564 23.0616 8.10273 23.038 7.97998 23.038C7.84363 23.038 7.73448 23.0687 7.65289 23.1302C7.5713 23.1911 7.5305 23.277 7.5305 23.3866C7.5305 23.4876 7.57093 23.5629 7.65105 23.6127C7.70287 23.6459 7.81276 23.685 7.98182 23.7296L8.41917 23.8465C8.61065 23.8978 8.75545 23.966 8.85284 24.0516C9.00463 24.1844 9.08071 24.3769 9.08071 24.6285C9.08071 24.8866 8.9914 25.1013 8.81352 25.2724C8.63674 25.4421 8.38646 25.5269 8.06267 25.5269C7.7319 25.5269 7.47207 25.4436 7.28279 25.2761C7.09315 25.1076 6.9987 24.8763 6.9987 24.5827L7.50477 24.5824ZM9.76503 25.4543H10.2917V22.6301H9.76466L9.76503 25.4543ZM11.3652 22.9252C11.5718 22.6924 11.8349 22.5763 12.1539 22.5759C12.581 22.5759 12.893 22.7319 13.0904 23.0436C13.1995 23.2188 13.258 23.3943 13.2664 23.571H12.7361C12.7015 23.4353 12.6571 23.3331 12.6034 23.2641C12.5067 23.1413 12.3638 23.0801 12.1745 23.0801C11.9816 23.0801 11.8298 23.1671 11.7184 23.3409C11.607 23.5131 11.5512 23.7576 11.5512 24.0748C11.5512 24.3917 11.61 24.6292 11.7269 24.7874C11.8452 24.9449 11.9952 25.0235 12.1763 25.0235C12.3623 25.0235 12.5038 24.9556 12.6016 24.8203C12.6556 24.7472 12.7004 24.638 12.7361 24.4924H13.2609C13.2153 24.8003 13.0973 25.0508 12.9081 25.2437C12.7199 25.4366 12.4781 25.5332 12.1833 25.5332C11.818 25.5332 11.5313 25.4026 11.3222 25.1422C11.1135 24.8804 11.0091 24.5211 11.0091 24.0652C11.0091 23.5721 11.1278 23.1918 11.3656 22.9248" fill="#084793"/>
<path fill-rule="evenodd" clip-rule="evenodd" d="M29.226 26.3579H42.9383V21.504H29.226V26.3579Z" fill="#FFD400"/>
<path fill-rule="evenodd" clip-rule="evenodd" d="M31.2636 23.1206V23.7432H31.8869C31.9983 23.7432 32.0883 23.72 32.157 23.6742C32.2272 23.6267 32.2621 23.5441 32.2621 23.4249C32.2621 23.2936 32.2162 23.2066 32.1243 23.1645C32.0453 23.135 31.9442 23.1203 31.8215 23.1203L31.2636 23.1206ZM31.2636 24.2105V24.9637H31.8869C31.9983 24.9637 32.085 24.9471 32.1467 24.9139C32.2592 24.8527 32.3158 24.735 32.3158 24.5613C32.3158 24.4145 32.2607 24.3138 32.1519 24.2589C32.0912 24.2279 32.0056 24.212 31.8954 24.2109L31.2636 24.2105ZM32.6513 22.9307C32.7293 23.0505 32.7686 23.1944 32.7686 23.3618C32.7686 23.5341 32.7293 23.6728 32.6513 23.7775C32.5987 23.8439 32.533 23.8988 32.4584 23.9387C32.5881 23.9911 32.6859 24.0741 32.7513 24.1877C32.8175 24.3013 32.8509 24.4392 32.8513 24.6019C32.8513 24.769 32.8131 24.9191 32.7373 25.0519C32.6896 25.1404 32.6289 25.2141 32.5565 25.2743C32.4729 25.3442 32.3737 25.3928 32.2673 25.4159C32.157 25.4417 32.0372 25.4546 31.9075 25.4546H30.7571V22.6293H31.9902C32.3011 22.6349 32.5212 22.7352 32.6513 22.9307ZM35.1259 24.7741C35.2497 24.6015 35.3118 24.3562 35.3118 24.0383C35.3118 23.7215 35.2497 23.4769 35.1259 23.3043C35.0031 23.1306 34.8366 23.0439 34.6268 23.0435C34.4166 23.0435 34.249 23.1298 34.124 23.3021C33.9987 23.4747 33.9362 23.72 33.9362 24.0383C33.9362 24.3562 33.9987 24.6015 34.1236 24.7741C34.2486 24.9467 34.4166 25.0327 34.6268 25.0327C34.8363 25.0327 35.0031 24.9464 35.1259 24.7741ZM35.4585 25.2034C35.2666 25.4233 34.9895 25.5332 34.6268 25.5332C34.2637 25.5332 33.9866 25.4233 33.7951 25.2034C33.5378 24.9342 33.4092 24.5454 33.4092 24.0379C33.4092 23.5208 33.5378 23.1324 33.7951 22.8731C33.9866 22.6533 34.2637 22.5434 34.6268 22.5434C34.9895 22.5434 35.2663 22.6533 35.4585 22.8731C35.7143 23.1324 35.8422 23.5208 35.8422 24.0383C35.8422 24.5454 35.7143 24.9338 35.4585 25.2034ZM38.0774 24.7741C38.2017 24.6015 38.2634 24.3562 38.2634 24.0383C38.2634 23.7215 38.2017 23.4769 38.0774 23.3043C37.9547 23.1306 37.7882 23.0439 37.578 23.0435C37.3681 23.0435 37.2005 23.1298 37.0752 23.3021C36.9502 23.4747 36.8878 23.72 36.8878 24.0383C36.8878 24.3562 36.9502 24.6015 37.0752 24.7741C37.2002 24.9467 37.3681 25.0327 37.578 25.0327C37.7882 25.0327 37.9547 24.9467 38.0778 24.7745M38.4097 25.2034C38.2182 25.4233 37.9407 25.5332 37.578 25.5332C37.2152 25.5332 36.9381 25.4233 36.7466 25.2034C36.4894 24.9342 36.3607 24.5454 36.3607 24.0379C36.3607 23.5208 36.4894 23.1324 36.7466 22.8731C36.9377 22.6533 37.2152 22.5434 37.578 22.5434C37.9407 22.5434 38.2182 22.6533 38.4097 22.8731C38.6658 23.1324 38.7937 23.5208 38.7937 24.0383C38.7937 24.5454 38.6658 24.9338 38.4097 25.2034ZM39.4156 22.6297H39.9375V23.793L40.9173 22.6297H41.6023L40.5622 23.793L41.6556 25.4543H40.9739L40.1903 24.2205L39.9375 24.5097V25.4543H39.4156V22.6297Z" fill="#084793"/>
</g>
<defs>
<clipPath id="clip0_10009_149">
<rect width="43" height="33" fill="white"/>
</clipPath>
</defs>
</svg>
