<?xml version="1.0" encoding="utf-8"?>
<!-- Generator: Adobe Illustrator 18.1.1, SVG Export Plug-In . SVG Version: 6.00 Build 0)  -->
<svg version="1.0" id="Layer_1" xmlns="http://www.w3.org/2000/svg" xmlns:xlink="http://www.w3.org/1999/xlink" x="0px" y="0px"
	 viewBox="0 0 509 70.2" enable-background="new 0 0 509 70.2" xml:space="preserve">
<g>
	<path fill="#CF0A2C" d="M296.1,3.3c-0.1-0.6-0.5-0.7-0.9-0.7H292c-0.2,0-0.6,0.1-0.7,0.5c-0.2,0.4-19.7,46.1-20.1,46.8
		c-0.3,0.8-0.7,0.7-1-0.2c-0.2-0.4-21.3-46.2-21.5-46.6c-0.2-0.4-0.5-0.6-0.9-0.6h-3.5c-0.2,0-0.6,0.1-0.7,0.5
		c-0.1,0.5-9.7,62.6-9.8,62.8c0,0.3-0.1,0.9,0.7,0.9h4.4c0.6,0,1.1-0.3,1.2-0.9c0.1-0.8,6.6-42.1,6.6-42.4c0.1-0.7,0.3-0.8,0.6-0.1
		c0.2,0.4,19.6,42.7,19.8,43c0.1,0.3,0.4,0.4,0.6,0.4h2.2c0.2,0,0.4-0.2,0.6-0.5c0.2-0.3,17.9-42,18.3-42.7c0.3-0.7,0.5-0.7,0.6,0.1
		c0.1,0.4,7.4,41.9,7.5,42.4c0.1,0.5,0.4,0.6,1,0.6h8.5c0.6,0,1.1-0.5,1-1.1C306.9,64.5,296.2,3.8,296.1,3.3"/>
	<path fill="#CF0A2C" d="M347.8,40.1c0.2,0.5,0.2,0.9-0.7,0.9H329c-0.7,0-1-0.4-0.7-1c0.2-0.5,8.8-20.4,9.1-21.1
		c0.3-0.7,0.8-0.5,1,0C338.8,19.7,347.6,39.7,347.8,40.1 M343.3,4.6c-0.7-1.6-1.6-1.9-2.3-1.9h-2.6c-0.3,0-0.6,0.1-0.9,0.7
		c-0.2,0.5-26.5,61.5-26.9,62.4c-0.3,0.7-0.3,1.2,0.6,1.2h4.7c0.4,0,0.8-0.2,1.1-0.9c0.4-0.9,7.5-17.4,7.8-18
		c0.3-0.8,1.1-0.8,1.6-0.8H350c0.4,0,1-0.1,1.3,0.8c0,0,7.7,17.5,8,18c0.2,0.5,0.8,0.9,1.2,0.9h8.9c0.8,0,1.1-0.6,0.8-1.2
		C370.1,65.4,343.9,6,343.3,4.6"/>
	<path fill="#CF0A2C" d="M194.5,15.9c0-4.7,3.3-8.3,7.8-9.3c4.4-1,9.9,0,12.7,3.7c0.4,0.5,0.8,1.1,1.1,1.7c0.2,0.4,0.6,0.8,1.5,0.9
		c0.2,0,1.1,0,1.5,0.1c0.5,0,1.1-0.3,1.1-0.9c-0.1-1.3-0.3-5.7-0.3-6.4c0-0.9-0.4-1-0.9-1.2c-2.3-1-4.7-1.7-7.1-2.2
		c-5.7-1-11.9-0.7-17.2,1.6c-5,2.1-8.8,6.2-10.2,11.4c-1.1,4-0.8,8.6,1.4,12.3c2,3.4,5.1,5.5,8.7,7.1c3.6,1.6,7.3,2.9,10.9,4.4
		c4.5,1.9,8,4.1,9.1,7.9c1.4,4.6,0.5,9.5-3.2,12.9c-5.1,4.6-18.7,3.8-23.2-2.9c-0.8-1.2-1-2-2.3-2c-0.8,0-2,0-2,1.1c0,0.6,0,5.3,0,7
		c0,0.8,0.1,1.4,0.9,1.7c1.4,0.6,3,1.2,4.6,1.6c2.4,0.8,4.9,1.2,7.5,1.4c16.5,1.7,28.5-6.6,28.5-21c0-5.1-1.9-10.2-6.1-13.3
		c-3.7-2.7-8.3-4.2-12.5-5.7c-2.4-0.8-5.4-1.8-7.6-3.2C195.9,22.6,194.5,19.6,194.5,15.9"/>
	<path fill="#CF0A2C" d="M509,3.8c0-0.6-0.5-1.1-1.1-1.1h-4.4c-0.6,0-1.1,0.5-1.1,1.1v43.3c0,1.1-0.4,1.5-1.1,0.7
		C499,45.3,461,5.2,459.1,3.3c-0.5-0.5-1-0.6-1.5-0.6h-3.3c-0.6,0-1.1,0.5-1.1,1.1v62.2c0,0.6,0.5,1.1,1.1,1.1h4.4
		c0.6,0,1.1-0.5,1.1-1.1v-44c0-1.8,0.9-0.8,1.4-0.3c2.8,2.9,38.2,40.2,42.5,44.7c0.6,0.7,1.2,0.7,1.4,0.7h2.8c0.6,0,1.1-0.5,1.1-1.1
		C509,65.9,509,3.8,509,3.8"/>
	<path fill="#CF0A2C" d="M50.1,65.3C49,63.9,30.4,40.1,29.4,38.8c-0.4-0.6-0.3-1,0.9-1.5c2.7-1,12.1-5.3,12.6-16.5
		c0.4-9.5-6.1-18.1-16.4-18.1H1.1C0.4,2.7,0,3.2,0,3.8v62.1C0,66.5,0.5,67,1.1,67H9c0.6,0,1.1-0.4,1.1-1.1V39.8
		c0-0.6,0.5-1.1,1.1-1.1h4.6c0.4,0,1,0,1.6,0.8c0.6,0.8,20.8,26.7,20.8,26.7c0.5,0.5,0.9,0.7,1.4,0.7h9.6
		C50.1,67,50.6,65.9,50.1,65.3 M15.3,32.7h-4.3c-0.6,0-1-0.5-1-1.1V9.4c0-0.6,0.5-1.1,1.1-1.1h6.8c7.1,0,13.9,2.1,13.9,11.3
		C31.8,24.2,29.4,32.7,15.3,32.7"/>
	<path fill="#CF0A2C" d="M144.5,15.9c0-4.7,3.3-8.3,7.8-9.3c4.4-1,9.9,0,12.7,3.7c0.4,0.5,0.8,1.1,1.1,1.7c0.2,0.4,0.6,0.8,1.5,0.9
		c0.2,0,1.1,0,1.5,0.1c0.4,0,1.1-0.3,1.1-0.9c-0.1-1.3-0.3-5.7-0.3-6.4c0-0.9-0.4-1-0.9-1.2c-2.3-1-4.7-1.7-7.1-2.2
		c-5.7-1-11.8-0.7-17.2,1.6c-5,2.1-8.7,6.2-10.2,11.4c-1.1,4-0.8,8.6,1.4,12.3c2,3.4,5.1,5.5,8.7,7.1c3.6,1.6,7.3,2.9,10.9,4.4
		c4.5,1.9,8,4.1,9.1,7.9c1.4,4.6,0.5,9.5-3.2,12.9c-5.1,4.6-18.7,3.8-23.2-2.9c-0.8-1.2-1-2-2.3-2c-0.8,0-2,0-2,1.1c0,0.6,0,5.3,0,7
		c0,0.8,0.1,1.4,0.9,1.7c1.4,0.6,3,1.2,4.6,1.6c2.5,0.8,4.9,1.2,7.5,1.4c16.5,1.7,28.5-6.6,28.5-21c0-5.1-1.9-10.2-6.2-13.3
		c-3.7-2.7-8.2-4.2-12.5-5.7c-2.4-0.8-5.4-1.8-7.6-3.2C145.9,22.6,144.6,19.6,144.5,15.9"/>
	<path fill="#CF0A2C" d="M88.1,0C68.8,0,53,15.7,53,35.1c0,19.4,15.7,35.1,35.1,35.1c19.4,0,35.1-15.7,35.1-35.1
		C123.2,15.7,107.5,0,88.1,0 M88.1,6.2c8.7,0,16.5,3.9,21.8,10H99.9l0.9-1.9c1-2.2-2.9-4.2-4.1-1.7l-1.8,3.6H66.3
		C71.6,10.1,79.4,6.2,88.1,6.2 M59.3,35.1c0-5.5,1.6-10.7,4.3-15.1c0,0,26.7,1.2,27,1.2c0.3,0,0.7,0.1,0.9,0.6
		c0.2,0.5,2.7,6.3,2.8,6.6c0.1,0.3,0.1,0.9-0.9,0.9H67.2c-1.8,0-3.2,1.4-3.2,3.2v9.8c0,0.8,0.2,1.5,0.7,2c0.7,0.8,2,1.3,2.2,1.4
		c0.3,0.1,0.4-0.1,0.4-0.3V32.8c0-0.3,0.2-0.5,0.4-0.5c0.2,0,2.8,0,2.8,0c0.1,0,0.4,0,0.2,0.4c-0.9,1.3-1.3,2.6-1.3,4.9
		c0,3.5,2.6,6,3.4,6.6c0.1,0.1,0.2,0.3,0.1,0.6c-0.2,0.3-2.6,5.1-2.6,5.2c-0.1,0.3-0.2,0.6,0.1,0.9l12.7,12.6
		C69.5,61.1,59.3,49.3,59.3,35.1 M89.6,63.9c0,0-12.2-12.2-13-13.1c-0.3-0.3-0.1-0.5,0.1-0.8c0.1-0.3,4.4-8.3,4.6-8.7
		c0.2-0.4,0.6-0.5,0.7-0.5h2.9c0.1,0,0.4,0,0.2,0.4c-0.2,0.4-4,8-4.1,8.1c-0.1,0.2,0,0.5,0.1,0.6c0.2,0.2,13.2,13.2,13.2,13.2
		C92.7,63.7,91.2,63.9,89.6,63.9 M99,61.9L87.4,50.3c-0.2-0.2-0.1-0.5-0.1-0.7l4.1-8.3c0.2-0.3,0.5-0.4,0.7-0.4h7.3
		c0.2,0,0.3,0.2,0.2,0.4l-1.9,4.4c0,0.1-0.1,0.4,0.2,0.6l2.7,1.7c0.3,0.2,0.6,0,0.7-0.2c0.1-0.2,2.9-6.6,2.9-6.6
		c0.2-0.3,0.4-0.4,0.7-0.4h2.4c0.1,0,0.4,0.1,0.2,0.4c-0.2,0.3-2,4.6-2,4.6c0,0.1-0.1,0.4,0.2,0.6l2.7,1.8c0.3,0.2,0.6,0,0.7-0.2
		c0.1-0.2,3-6.7,3.2-7.3c0.8-1.8,0.4-4.8-3.1-4.8h-3.9c-0.4,0-0.5-0.3-0.5-0.5V22c0-0.6,0.3-0.8,0.7-0.9c0.2,0,7.4-1.1,7.4-1.1
		c2.7,4.4,4.3,9.6,4.3,15.1C117,47.2,109.6,57.6,99,61.9"/>
	<path fill="#CF0A2C" d="M435.3,3.8c0-0.6-0.5-1.1-1.1-1.1h-4.4c-0.6,0-1.1,0.5-1.1,1.1v43.3c0,1.1-0.4,1.5-1.1,0.7
		c-2.4-2.5-40.4-42.5-42.3-44.4c-0.5-0.5-1-0.6-1.3-0.6h-3.5c-0.6,0-1.1,0.5-1.1,1.1v62.2c0,0.6,0.5,1.1,1.1,1.1h4.4
		c0.6,0,1.1-0.5,1.1-1.1v-44c0-1.8,1-0.8,1.4-0.3c2.8,2.9,38.2,40.2,42.5,44.7c0.6,0.7,1.1,0.7,1.4,0.7h2.8c0.6,0,1.1-0.5,1.1-1.1
		V3.8z"/>
</g>
</svg>
