<svg xmlns="http://www.w3.org/2000/svg" width="20.2" height="13.44" viewBox="0 0 20.2 13.44"><defs><style>.cls-1{fill:#0551a0;}.cls-2{fill:#ec2027;}.cls-3{fill:#fff;}</style></defs><g id="Layer_2" data-name="Layer 2"><g id="Layer_1-2" data-name="Layer 1"><path class="cls-1" d="M3.06,10.49l.65.17L2,13.44l-.65-.28.88-2.32a4.83,4.83,0,0,1-1.64.32L.34,9.76a4,4,0,0,0,2.06-.6s.46-.48.11-.8a3.61,3.61,0,0,0-1-.68C.86,7.31,0,6.69,0,5.86A2.08,2.08,0,0,1,1,4.33,8.61,8.61,0,0,1,4,3.16l.12,1.4S2.05,4.71,2,5.47a.93.93,0,0,0,.49.72c.49.31,1.76.79,2,1.42,0,0,.71,1.52-1.52,2.85"/><polygon class="cls-2" points="11.62 3.99 13.61 1.32 11.37 3.01 11.62 3.99"/><polygon class="cls-2" points="8.18 3.23 4.87 0 6.1 2.16 8.18 3.23"/><polygon class="cls-2" points="4.21 10.5 5.54 8.43 3.65 5.91 5.96 5.04 4.3 1.25 8.52 3.87 11.03 2.49 11.43 4.94 15.68 4.87 12.25 7.9 12.9 11.25 9.61 10.45 8.43 12.93 6.8 9.83 4.21 10.5"/><polygon class="cls-2" points="3.4 12.48 6.55 10.19 7.01 10.97 3.4 12.48"/><polygon class="cls-2" points="9.81 10.79 11.34 11.14 12.27 13.21 9.81 10.79"/><path class="cls-3" d="M8.67,4.38a2.6,2.6,0,0,1,3,2.16,2.66,2.66,0,0,1,0,.63,2.81,2.81,0,0,1-3,2.63H8.57s-2.63,0-2.63-2.44a2.94,2.94,0,0,1,2.76-3"/><path class="cls-2" d="M8.74,5.75s1.15-.07,1.1,1.38c0,0-.11,1.25-1.16,1.22a1.12,1.12,0,0,1-1-1.23v0s0-1.27,1.09-1.35"/><polygon class="cls-1" points="13.9 11.28 15.77 10.92 15.04 7.19 19.07 10.36 20.2 8.87 16.93 6.56 18.96 3.59 17.47 2.65 14.96 6.75 14.29 3.2 12.4 3.55 13.9 11.28"/></g></g></svg>