<svg xmlns="http://www.w3.org/2000/svg" viewBox="0 0 96 96"><defs><linearGradient id="g" x2="1" y2="1"><stop stop-color="#153c38"/><stop offset="1" stop-color="#090e15"/></linearGradient></defs><rect x="2" y="2" width="92" height="92" rx="24" fill="url(#g)" stroke="#45cbb3"/><path d="M17 43l16-12 16 11-11 14c-4 5-10 6-15 2l-6-5z" fill="#d79c3e" stroke="#ffe0a0" stroke-width="2"/><path d="M79 43L63 31 47 42l11 14c4 5 10 6 15 2l6-5z" fill="#3fc6ae" stroke="#cafff5" stroke-width="2"/><path d="M33 42l15 13 15-13" fill="none" stroke="#f8cf6c" stroke-width="4" stroke-linecap="round"/><path d="M28 72h40M62 66l7 6-7 6M34 18H74M40 12l-7 6 7 6" fill="none" stroke="#e5b34b" stroke-width="3" stroke-linecap="round" stroke-linejoin="round"/></svg>
